<?xml version="1.0" encoding="utf-8" ?>
<svg xmlns="http://www.w3.org/2000/svg" xmlns:xlink="http://www.w3.org/1999/xlink" width="1024" height="1024">
	<path d="M321.651 309.22C328.954 307.698 345.933 310.362 353.895 311.555C348.027 318.268 343.641 325.14 339.157 332.818C318.149 336.781 297.284 342.502 279.931 355.602Q278.483 356.684 277.09 357.836Q275.697 358.989 274.364 360.21Q273.031 361.431 271.761 362.717Q270.491 364.003 269.286 365.351Q268.082 366.699 266.947 368.106Q265.812 369.513 264.748 370.975Q263.685 372.436 262.696 373.95Q261.707 375.463 260.795 377.024Q259.883 378.584 259.05 380.189Q258.217 381.793 257.466 383.438Q256.715 385.082 256.047 386.761Q255.378 388.441 254.795 390.152Q254.212 391.863 253.715 393.601Q253.218 395.339 252.809 397.1Q252.4 398.861 252.08 400.64Q251.759 402.419 251.528 404.212C248.408 427.742 257.134 449.357 270.814 468.084C274.785 473.521 279.327 478.49 283.423 483.831Q281.7 488.394 280.109 493.005C264.739 538.919 292.733 560.924 325.275 587.237L375.137 626.819C383.393 633.465 395.138 641.326 399.92 650.943C396.292 672.681 391.062 694.029 391.043 716.219C387.52 709.266 382.994 702.854 378.234 696.702C355.058 667.37 322.856 645.084 293.305 622.668Q260.631 598.053 229.55 571.454C196.936 543.019 172.656 509.623 169.739 464.825C167.161 425.226 182.499 388.173 208.525 358.873C237.079 326.728 279.658 311.759 321.651 309.22Z"/>
	<path d="M567.707 225.345C576.318 225.621 585.703 228.485 594.039 230.576C632.208 240.15 668.009 254.324 701.642 274.894Q705.584 277.332 709.466 279.866Q713.348 282.4 717.167 285.028Q720.986 287.656 724.739 290.376Q728.493 293.096 732.179 295.907Q735.865 298.718 739.482 301.618Q743.098 304.518 746.643 307.505Q750.188 310.493 753.658 313.566Q757.129 316.639 760.524 319.795Q763.918 322.952 767.235 326.191Q770.552 329.429 773.789 332.748Q777.025 336.066 780.18 339.463Q783.335 342.859 786.406 346.332Q789.477 349.804 792.463 353.35Q795.448 356.897 798.346 360.515Q801.244 364.133 804.053 367.82Q806.862 371.508 809.58 375.263Q812.298 379.018 814.924 382.839Q817.549 386.659 820.081 390.542Q822.613 394.425 825.049 398.369Q827.485 402.313 829.825 406.315Q832.164 410.317 834.405 414.375Q836.646 418.433 838.787 422.544Q840.929 426.656 842.969 430.818Q845.01 434.981 846.948 439.192Q848.886 443.402 850.721 447.659Q852.556 451.916 854.287 456.217Q856.017 460.517 857.643 464.859Q859.268 469.2 860.787 473.58Q862.305 477.96 863.717 482.375Q865.128 486.791 866.432 491.239Q867.735 495.688 868.93 500.167Q870.124 504.646 871.209 509.153Q872.293 513.666 873.264 518.205Q874.235 522.744 875.093 527.305Q875.952 531.867 876.697 536.448Q877.442 541.029 878.073 545.628Q878.704 550.226 879.221 554.839Q879.737 559.452 880.14 564.076Q880.542 568.7 880.829 573.332Q881.117 577.965 881.289 582.603Q881.461 587.242 881.518 591.883Q881.576 596.524 881.518 601.165Q881.46 605.806 881.287 610.445Q881.114 615.083 880.826 619.715Q880.538 624.348 880.135 628.972Q879.732 633.596 879.215 638.209Q878.697 642.821 878.065 647.42Q877.434 652.018 876.688 656.599Q875.943 661.18 875.083 665.742Q874.224 670.303 873.253 674.842Q872.281 679.38 871.196 683.893Q870.112 688.406 868.916 692.891Q867.72 697.376 866.414 701.83Q865.107 706.284 863.69 710.704Q862.273 715.124 860.747 719.507Q859.221 723.891 857.587 728.235Q855.953 732.579 854.211 736.882Q852.47 741.184 850.622 745.442Q848.774 749.7 846.821 753.91Q844.869 758.121 842.812 762.282Q840.755 766.443 838.596 770.552Q836.437 774.661 834.176 778.714Q831.916 782.768 829.555 786.765Q827.195 790.761 824.736 794.698C785.252 859 722.194 909.106 653.087 938.24C639.356 944.029 624.542 949.883 610.057 953.344C613.844 936.5 616.593 919.692 618.989 902.608C620.841 885.729 623.5 868.975 625.098 852.052Q628.079 821.728 629.014 791.273Q629.949 760.817 628.833 730.368C627.97 703.412 626.457 675.421 619.684 649.213C623.04 645.523 626.403 642.01 630.117 638.668C630.809 645.071 630.381 651.823 630.368 658.267Q630.299 677.168 630.463 696.067C630.845 718.606 634.907 738.488 651.823 754.679C665.892 768.146 685.456 774.856 704.783 774.269C724.268 773.677 744.291 765.557 757.722 751.252C767.612 740.717 773.224 727.832 775.542 713.667C778.432 696.005 776.909 678.05 776.923 660.256Q777.138 614.314 776.843 568.372Q776.425 506.179 776.919 443.987C776.988 419.228 777.47 394.273 776.567 369.533Q734.847 369.052 693.128 369.581C682.128 346.766 671.014 323.686 659.015 301.389C646.355 295.894 632.917 292.235 619.886 287.729C597.257 279.903 572.799 270.455 551.486 259.752C557.277 248.502 562.417 236.838 567.707 225.345Z"/>
	<path d="M562.119 48.8104Q563.242 50.1295 564.261 51.5297Q565.281 52.9298 566.192 54.403Q567.103 55.8762 567.9 57.414Q568.697 58.9518 569.376 60.5454Q570.054 62.1391 570.611 63.7794Q571.167 65.4198 571.598 67.0975Q572.028 68.7752 572.331 70.4806Q572.634 72.1861 572.807 73.9095Q572.897 74.7643 572.944 75.6225Q572.991 76.4807 572.995 77.3402Q572.999 78.1997 572.96 79.0583Q572.921 79.9169 572.839 80.7725Q572.756 81.6281 572.631 82.4784Q572.506 83.3288 572.339 84.1718Q572.171 85.0148 571.961 85.8484Q571.752 86.6819 571.5 87.5039Q571.249 88.3258 570.957 89.1342Q570.665 89.9425 570.332 90.7351Q570 91.5278 569.628 92.3027Q569.257 93.0777 568.846 93.833Q568.436 94.5883 567.989 95.3221Q567.541 96.0559 567.057 96.7663Q566.573 97.4767 566.054 98.1619Q565.536 98.8471 564.983 99.5054C558.386 107.295 548.19 110.931 538.27 111.772C540.136 112.478 541.992 113.222 543.879 113.866C555.41 117.802 570.739 114.25 581.281 108.919C590.754 104.128 596.844 96.962 600.121 86.9005C600.114 94.3776 599.479 101.777 597.245 108.951C591.135 128.578 574.477 144.291 555.219 150.845C543.989 154.667 532.054 156.829 521.47 162.402C513.726 166.48 508.055 172.641 505.502 181.098C503.824 186.657 502.867 199.064 505.635 204.154L505.546 203.812L505.588 203.944C507.416 200.206 503.476 189.708 509.679 179.46C514.064 172.216 522.251 168.455 530.162 166.421C535.208 165.124 557.647 161.643 561.942 164.209C561.645 168.449 559.599 172.665 558.765 176.867C554.991 195.865 553.868 214.904 543.836 232.136Q540.674 237.569 536.45 242.224C534.889 243.915 532.849 245.486 531.622 247.427C533.564 246.859 535.527 244.735 537.081 243.434C536.743 255.275 536.957 267.157 539.623 278.75C539.926 273.886 540.707 265.194 543.884 261.382L544.477 261.835C545.187 265.498 544.97 269.583 544.283 273.251C542.002 285.427 537.101 297.324 533.056 309.009L517.194 355.581C514.92 362.272 511.989 369.237 510.773 376.195C509.796 381.78 510.458 388.093 510.888 393.735C531.699 377.538 556.399 351.339 574.53 331.737C569.826 328.69 565.116 325.239 560.777 321.692Q568.642 317.699 576.64 313.979C570.949 300.7 562.165 288.5 554.461 276.303C552.155 272.651 549.48 269.035 547.553 265.178L548.018 265.782L547.998 265.41C551.724 270.335 555.189 274.944 560.18 278.689C571.74 287.363 587.867 292.447 601.371 297.289C616.84 302.835 632.674 308.022 647.732 314.625C653.738 324.909 658.414 336.588 663.12 347.533Q671.586 366.914 679.798 386.404C689.246 408.867 698.698 431.258 707.613 453.944C712.526 466.447 717.601 479.01 721.54 491.859C723.97 499.786 726.161 508.432 726.015 516.784C725.465 548.3 694.907 569.416 672.072 586.313Q657.189 597.349 642.444 608.569Q621.545 624.71 602.615 643.122C614.551 696.546 614.359 752.99 611.139 807.346Q609.572 837.706 606.185 867.917Q602.798 898.129 597.603 928.082C595.903 938.189 594.532 948.388 592.494 958.432Q584.695 960.266 576.821 961.746Q568.947 963.226 561.014 964.35Q553.082 965.473 545.106 966.237Q537.131 967.001 529.129 967.405Q521.127 967.808 513.116 967.85Q505.104 967.892 497.098 967.572Q489.093 967.252 481.11 966.572Q473.127 965.891 465.183 964.851C448.952 962.625 433.059 959.133 417.114 955.442C421.817 946.143 429.392 937.403 435.577 928.992L462.153 892.103L579.862 728.522C569.865 737.852 559.475 746.783 549.33 755.955L488.531 811.209C468.641 830.108 447.755 847.987 427.739 866.762L386 905.931C376.111 915.257 366.389 924.803 356.069 933.654C350.905 931.635 345.924 928.671 341.061 926.019Q317.5 913.201 295.8 897.435C210.741 835.778 157.099 742.663 140.64 639.426C151.609 670.967 166.757 700.008 185.451 727.65C215.811 772.541 260.207 820.036 315.679 830.533C339.412 835.025 370.627 832.595 390.943 818.488C396.546 814.597 401.187 809.66 402.918 802.888C405.848 791.43 404.305 777.911 404.446 766.131C404.581 754.851 405.285 743.516 405.998 732.256C407.261 712.301 408.938 692.179 412.219 672.451C413.87 662.526 416.408 652.784 418.239 642.895C394.444 622.091 369.943 602.311 345.625 582.134C331.534 570.443 316.404 559.012 303.937 545.575C298.917 540.164 294.242 534.072 291.934 526.973C289.489 519.452 289.997 511.203 292.066 503.66C294.37 495.259 298.327 487.127 301.727 479.124L319.815 436.822Q336.137 397.108 353.295 357.749C359.624 343.061 365.664 328.103 372.97 313.865C387.993 307.75 403.598 302.438 418.941 297.16C430.598 293.15 443.078 289.994 453.56 283.317C459.776 279.357 464.422 274.305 469.289 268.856L469.558 269.19L469.855 268.632C469.635 269.376 443.016 308.326 440.506 312.133C447.006 315.366 453.388 318.906 459.15 323.337C455.149 326.334 450.761 328.902 446.542 331.585C460.638 347.187 474.672 362.444 489.891 376.984C495.372 382.221 500.84 387.87 506.925 392.393C506.906 386.081 507.939 379.776 507.025 373.475C505.658 364.045 501.348 354.818 498.105 345.913L484.877 309.009C482.299 301.869 479.364 294.724 477.149 287.467C476.385 284.967 474.394 279.26 475.573 277.044L475.394 276.878C481.506 259.161 475.124 216.983 472.711 197.158C472.155 199.368 471.64 202.57 469.939 204.175C469.011 205.051 467.811 205.562 466.524 205.407C464.771 205.197 463.234 203.859 462.092 202.61C455.591 195.498 449.623 181.177 450.463 171.417C450.67 169.011 451.249 167.351 453.108 165.789C454.958 165.26 456.899 165.838 458.749 166.189C456.682 154.64 452.634 146.019 453.767 133.832C458.973 77.8753 519.381 99.157 550.677 72.7074C558.336 66.2346 561.31 58.5674 562.119 48.8104ZM392.525 392.721C393.548 398.175 394.776 403.743 395.382 409.257C386.503 427.079 374.389 442.635 363.001 458.867C350.924 476.08 339.219 493.501 326.82 510.492C351.56 537.199 376.578 564.045 402.422 589.681Q415.338 602.749 427.611 616.422C434.187 601.955 440.364 586.245 443.286 570.592C449.651 536.502 440.706 498.164 428.695 466.261C420.228 443.774 409.185 421.926 397.676 400.849C396.606 398.89 394.659 393.994 392.926 392.897C392.802 392.819 392.659 392.779 392.525 392.721ZM626.652 394.847Q616.009 414.12 606.733 434.087C584.36 481.909 569.209 533.856 583.919 586.447C586.575 595.94 590.84 605.277 595.228 614.096C603.336 605.535 611.861 597.397 619.952 588.819C633.282 574.048 646.286 558.837 660.413 544.815C670.501 534.802 681.556 525.678 691.573 515.654C679.476 489.014 661.816 465.216 645.135 441.286C638.43 431.667 631.031 422.193 625.564 411.8C626.212 406.775 627.852 399.783 626.652 394.847Z"/>
	<path d="M610.745 464.975C611.444 463.085 612.116 461.179 612.872 459.311Q613.287 477.269 612.938 495.229C612.504 498.22 612.844 501.867 611.953 504.68Q611.451 492.782 611.497 480.874C611.557 476.373 612.036 471.711 611.801 467.228C611.729 465.868 611.725 465.835 610.745 464.975Z"/>
	<path d="M611.953 504.68C612.844 501.867 612.504 498.22 612.938 495.229Q613.156 520.812 613.109 546.396C613.122 555.508 613.787 565.139 612.946 574.192C609.985 577.418 606.807 581.544 603.106 583.894C604.43 580.498 608.46 577.07 611.114 574.583C612.478 568.855 612.083 562.599 612.119 556.726Q612.172 540.59 611.82 524.458C611.729 517.926 611.382 511.185 611.953 504.68Z"/>
	<path d="M610.745 464.975C611.725 465.835 611.729 465.868 611.801 467.228C612.036 471.711 611.557 476.373 611.497 480.874Q611.451 492.782 611.953 504.68C611.382 511.185 611.729 517.926 611.82 524.458Q612.172 540.59 612.119 556.726C612.083 562.599 612.478 568.855 611.114 574.583C608.46 577.07 604.43 580.498 603.106 583.894C602.204 585.004 600.447 586.05 599.301 586.945C597.85 582.24 597.087 577.162 596.283 572.3C590.368 536.555 596.992 498.28 610.745 464.975Z"/>
</svg>
